<?xml version="1.0"?>
<svg xmlns="http://www.w3.org/2000/svg" viewBox="0 0 672 480" width="672" height="480">
  <mask id="strokeMask">
    <path d="M0,0 v480 h672 v-480 z" fill="white"/>
    <path d="M 240 208 L 272 240 L 240 272 L 208 240 M 432 208 L 464 240 L 432 272 L 400 240 M 176 144 L 144 176 L 128 160 A 22.627416997969522 22.627416997969522 0 0 1 160 128 M 368 144 L 336 176 L 304 144 L 320 128 A 22.627416997969522 22.627416997969522 0 0 1 352 128 M 528 176 L 496 144 L 512 128 A 22.627416997969522 22.627416997969522 0 0 1 544 160 M 496 336 L 528 304 L 544 320 A 22.627416997969522 22.627416997969522 0 0 1 512 352 M 304 336 L 336 304 L 368 336 L 352 352 A 22.627416997969522 22.627416997969522 0 0 1 320 352 M 144 304 L 176 336 L 160 352 A 22.627416997969522 22.627416997969522 0 0 1 128 320 z" fill="black"/>
  </mask>
  <g fill="#d76d1f" mask="url(#strokeMask)">
    <path d="M 80 240 L 64 224 A 1 1 0 0 1 224 64 L 240 80 L 256 64 A 113.13708498984761 113.13708498984761 0 0 1 416 64 L 432 80 L 448 64 A 1 1 0 0 1 608 224 L 592 240 L 608 256 A 1 1 0 0 1 448 416 L 432 400 L 416 416 A 113.13708498984761 113.13708498984761 0 0 1 256 416 L 240 400 L 224 416 A 1 1 0 0 1 64 256 z"/>
  </g>
  <g fill="#24414f">
    <path d="M 288.0 160.0 L 416.0 288.0 L 384.0 320.0 L 256.0 192.0 M 384.0 128.0 L 368 112 A 45.254833995939045 45.254833995939045 0 0 0 304 112 L 192.0 224.0 L 160.0 192.0 L 272 80 A 90.50966799187809 90.50966799187809 0 0 1 400 80 L 416.0 96.0 M 352.0 192.0 L 464 80 A 90.50966799187809 90.50966799187809 0 0 1 592 208 L 576.0 224.0 L 544.0 192.0 L 560 176 A 45.254833995939045 45.254833995939045 0 0 0 496 112 L 384.0 224.0 M 480.0 352.0 L 496 368 A 1 1 0 0 0 560 304 L 448.0 192.0 L 480.0 160.0 L 592 272 A 1 1 0 0 1 464 400 L 448.0 384.0 M 288.0 352.0 L 304 368 A 45.254833995939045 45.254833995939045 0 0 0 368 368 L 480.0 256.0 L 512.0 288.0 L 400 400 A 90.50966799187809 90.50966799187809 0 0 1 272 400 L 256.0 384.0 M 128.0 288.0 L 112 304 A 45.254833995939045 45.254833995939045 0 0 0 176 368 L 288.0 256.0 L 320.0 288.0 L 208 400 A 90.50966799187809 90.50966799187809 0 0 1 80 272 L 96.0 256.0 M 192.0 128.0 L 176 112 A 45.254833995939045 45.254833995939045 0 0 0 112 176 L 224.0 288.0 L 192.0 320.0 L 80 208 A 90.50966799187809 90.50966799187809 0 0 1 208 80 L 224.0 96.0 z"/>
  </g>
</svg>
